<?xml version="1.0" encoding="UTF-8" standalone="no"?>
<!DOCTYPE svg PUBLIC "-//W3C//DTD SVG 1.1//EN" "http://www.w3.org/Graphics/SVG/1.1/DTD/svg11.dtd">
<svg version="1.1" xmlns="http://www.w3.org/2000/svg" xmlns:xlink="http://www.w3.org/1999/xlink" preserveAspectRatio="xMidYMid meet" viewBox="0 0 640 640" width="640" height="640">
<defs>
<path d="M92.66 544.61L94.64 18.05L180.94 18.05L187.19 33.67L194.22 51.64L204.38 66.48L204.38 95.39L194.22 121.17L176.25 143.83L169.22 168.83L166.88 184.45L173.91 207.89L164.53 225.08L149.69 257.11L140.31 280.16L133.28 300.08L130.94 311.8L133.28 333.67L135.63 359.45L135.63 376.64L147.34 417.27L152.03 437.58L144.22 450.08L140.31 475.08L135.63 490.7L144.22 513.36L164.53 525.08L191.09 513.36L214.53 513.36L237.97 525.08L229.38 542.27L92.66 544.61Z" id="a4ftKFsz7"></path><path d="M145.78 496.95L148.13 465.7L157.5 465.7L159.84 485.23L157.5 496.95L145.78 496.95Z" id="a1lj8ZvGz"></path>
<path d="M209.06 461.8L215.31 459.45L215.31 451.64L228.59 446.17L252.81 440.7L271.56 427.42L252.81 414.92L234.84 407.11L215.31 407.11L204.38 414.92L204.38 432.11L198.13 443.83L195 456.33L209.06 461.8Z" id="a1CaKaq4QC"></path>
<path d="M352.03 436.8L377.81 427.42L377.81 434.45L372.34 447.73L352.03 454.77L335.63 450.08L339.53 439.92L352.03 436.8Z" id="e159oqFmDe"></path>
<path d="M335.63 421.17L345.78 424.3L362.19 427.42L377.81 415.7L380.16 407.11L362.19 415.7L339.53 415.7L335.63 421.17Z" id="bFuyWiY47"></path>
<path d="M313.75 403.98L329.38 407.11L305.94 417.27L313.75 403.98Z" id="d1k6zjjVdR"></path>
<path d="M279.38 422.73L297.34 420.39L297.34 429.77L286.41 429.77L279.38 422.73Z" id="a16R9PdGlu"></path>
<path d="M249.69 313.36L303.59 328.2L327.03 316.48L356.72 321.95L374.69 316.48L387.97 321.95L400.47 328.2L404.38 350.08L396.56 369.61L380.16 395.39L353.59 410.63L315.31 398.52L294.22 413.36L261.41 413.36L220 398.52L191.88 383.67L187.19 360.23L195 336.8L181.72 320L184.84 294.61L205.94 283.67L249.69 313.36Z" id="ebyABzwPK"></path>
<path d="M384.84 278.2L382.5 289.92L384.84 307.89L406.72 318.05L416.88 345.39L434.84 356.33L434.84 348.52L441.09 341.48L434.84 300.86L432.5 269.61L429.38 261.02L398.91 263.36L384.84 256.33L384.84 278.2Z" id="ahenQRR0"></path>
<path d="M255.94 308.67L264.53 303.98L297.34 308.67L308.28 314.92L329.38 306.33L349.69 295.39L367.66 299.3L367.66 290.7L372.34 281.33L372.34 270.39L364.53 253.98L347.34 251.64L339.53 229.77L302.81 215.7L288.36 221.95L262.19 218.05L241.88 227.42L227.81 229.77L205.94 251.64L187.19 270.39L255.94 308.67Z" id="c1PQg61p0"></path>
<path d="M218.44 196.17L224.69 212.58L233.28 223.52L253.59 215.7L285.63 215.7L269.22 200.86L246.56 187.58L224.69 172.73L218.44 196.17Z" id="bNUdZznUB"></path>
<path d="M237.19 163.36L243.44 176.64L270.78 192.27L296.56 211.02L343.44 223.52L373.91 237.58L392.66 237.58L403.59 256.33L411.02 251.64L406.72 237.58L411.02 223.52L384.84 207.89L395 192.27L392.66 176.64L406.72 172.73L411.02 159.45L413.75 137.58L392.66 144.61L379.38 153.2L360.63 150.08L346.56 137.58L371.56 133.67L384.84 141.48L395 128.2L384.84 124.3L360.63 117.27L343.44 117.27L321.56 110.23L309.84 110.23L289.53 119.61L274.69 110.23L255.16 105.55L255.16 124.3L243.44 141.48L243.44 141.48L226.25 150.08L237.19 163.36Z" id="a3C7hMePqA"></path>
<path d="M223.91 70.39L233.28 80.55L233.28 88.36L218.44 83.67L216.09 110.23L206.72 138.36L218.44 138.36L223.91 112.58L243.44 112.58L257.5 93.05L282.5 95.39L297.34 88.36L288.36 73.52L264.53 64.14L241.09 57.89L223.91 70.39Z" id="g51rak7Wdf"></path>
<path d="M459.42 18.05L462.19 102.42L443.44 109.45L432.5 98.13L394.22 71.95L356.72 75.08L324.69 65.7L299.69 65.7L293.05 54.77L271.56 50.86L244.22 37.58L233.28 18.05L459.42 18.05Z" id="dG6012mw"></path></defs>
<g><g><g><use xlink:href="#a4ftKFsz7" opacity="1" fill="#b7f3b0" fill-opacity="1"></use><g><use xlink:href="#a4ftKFsz7" opacity="1" fill-opacity="0" stroke="#000000" stroke-width="1" stroke-opacity="1"></use></g></g><g><use xlink:href="#a1lj8ZvGz" opacity="1" fill="#b0edc8" fill-opacity="1"></use><g><use xlink:href="#a1lj8ZvGz" opacity="1" fill-opacity="0" stroke="#000000" stroke-width="1" stroke-opacity="1"></use></g></g><g><use xlink:href="#a1CaKaq4QC" opacity="1" fill="#5be791" fill-opacity="1"></use><g><use xlink:href="#a1CaKaq4QC" opacity="1" fill-opacity="0" stroke="#000000" stroke-width="1" stroke-opacity="1"></use></g></g><g><use xlink:href="#e159oqFmDe" opacity="1" fill="#44dd7f" fill-opacity="1"></use><g><use xlink:href="#e159oqFmDe" opacity="1" fill-opacity="0" stroke="#000000" stroke-width="1" stroke-opacity="1"></use></g></g><g><use xlink:href="#bFuyWiY47" opacity="1" fill="#44dd7f" fill-opacity="1"></use><g><use xlink:href="#bFuyWiY47" opacity="1" fill-opacity="0" stroke="#000000" stroke-width="1" stroke-opacity="1"></use></g></g><g><use xlink:href="#d1k6zjjVdR" opacity="1" fill="#44dd7f" fill-opacity="1"></use><g><use xlink:href="#d1k6zjjVdR" opacity="1" fill-opacity="0" stroke="#000000" stroke-width="1" stroke-opacity="1"></use></g></g><g><use xlink:href="#a16R9PdGlu" opacity="1" fill="#44dd7f" fill-opacity="1"></use><g><use xlink:href="#a16R9PdGlu" opacity="1" fill-opacity="0" stroke="#000000" stroke-width="1" stroke-opacity="1"></use></g></g><g><use xlink:href="#ebyABzwPK" opacity="1" fill="#44dd7f" fill-opacity="1"></use><g><use xlink:href="#ebyABzwPK" opacity="1" fill-opacity="0" stroke="#000000" stroke-width="1" stroke-opacity="1"></use></g></g><g><use xlink:href="#ahenQRR0" opacity="1" fill="#44dd7f" fill-opacity="1"></use><g><use xlink:href="#ahenQRR0" opacity="1" fill-opacity="0" stroke="#000000" stroke-width="1" stroke-opacity="1"></use></g></g><g><use xlink:href="#c1PQg61p0" opacity="1" fill="#44dd7f" fill-opacity="1"></use><g><use xlink:href="#c1PQg61p0" opacity="1" fill-opacity="0" stroke="#000000" stroke-width="1" stroke-opacity="1"></use></g></g><g><use xlink:href="#bNUdZznUB" opacity="1" fill="#45e784" fill-opacity="1"></use><g><use xlink:href="#bNUdZznUB" opacity="1" fill-opacity="0" stroke="#000000" stroke-width="1" stroke-opacity="1"></use></g></g><g><use xlink:href="#a3C7hMePqA" opacity="1" fill="#45e784" fill-opacity="1"></use><g><use xlink:href="#a3C7hMePqA" opacity="1" fill-opacity="0" stroke="#000000" stroke-width="1" stroke-opacity="1"></use></g></g><g><use xlink:href="#g51rak7Wdf" opacity="1" fill="#c7f753" fill-opacity="1"></use><g><use xlink:href="#g51rak7Wdf" opacity="1" fill-opacity="0" stroke="#000000" stroke-width="1" stroke-opacity="1"></use></g></g><g><use xlink:href="#dG6012mw" opacity="1" fill="#c7f753" fill-opacity="1"></use><g><use xlink:href="#dG6012mw" opacity="1" fill-opacity="0" stroke="#000000" stroke-width="1" stroke-opacity="1"></use></g></g></g></g></svg>